<svg
        xmlns="http://www.w3.org/2000/svg"
        width="17"
        height="12"
        viewBox="0 0 17 12"
>
    <path
            fill="currentColor"
            fill-rule="evenodd"
            d="M15.142.356a2.132 2.132 0 011.503 1.508C17 3.194 17 5.968 17 5.968s0 2.774-.355 4.104a2.132 2.132 0 01-1.503 1.508c-1.326.356-6.642.356-6.642.356s-5.316 0-6.642-.356a2.133 2.133 0 01-1.503-1.508C0 8.742 0 5.968 0 5.968s0-2.774.355-4.104A2.132 2.132 0 011.858.356C3.184 0 8.5 0 8.5 0s5.316 0 6.642.356zm-3.938 5.612l-4.443 2.52V3.448l4.443 2.52z"
            clip-rule="evenodd"/>
</svg>
