<svg
        xmlns="http://www.w3.org/2000/svg"
        width="15"
        height="14"
        viewBox="0 0 15 14"
>
    <path
            fill="currentColor"
            d="M14.45 3.65c-.067 1.4-1.05 3.333-2.95 5.783-1.967 2.55-3.633 3.834-4.983 3.834-.85 0-1.55-.784-2.134-2.334C4 9.5 3.6 8.083 3.217 6.65c-.434-1.55-.9-2.333-1.4-2.333-.1 0-.484.233-1.134.683L0 4.117c.717-.634 1.417-1.25 2.117-1.884.95-.816 1.666-1.25 2.15-1.3 1.116-.1 1.816.667 2.083 2.3.283 1.784.483 2.884.583 3.317C7.25 8.017 7.617 8.767 8 8.767c.3 0 .75-.484 1.367-1.434.6-.95.933-1.683.966-2.183.084-.817-.233-1.233-.966-1.233-.35 0-.7.083-1.067.233C9.017 1.817 10.367.7 12.367.767c1.466.033 2.166 1 2.083 2.883z"
    />
</svg>
